<svg xmlns="http://www.w3.org/2000/svg" viewBox="0 0 120 120" width="120" height="120">
  <!-- Network-focused design showing ecosystem -->
  
  <!-- Network nodes (multiple companies) -->
  <circle cx="30" cy="40" r="8" fill="#1E3A8A" opacity="0.15"/>
  <circle cx="90" cy="40" r="8" fill="#1E3A8A" opacity="0.15"/>
  <circle cx="30" cy="80" r="8" fill="#1E3A8A" opacity="0.15"/>
  <circle cx="90" cy="80" r="8" fill="#1E3A8A" opacity="0.15"/>
  
  <!-- Connection mesh -->
  <line x1="30" y1="40" x2="60" y2="60" stroke="#F97316" stroke-width="2" opacity="0.3" stroke-dasharray="3,3"/>
  <line x1="90" y1="40" x2="60" y2="60" stroke="#F97316" stroke-width="2" opacity="0.3" stroke-dasharray="3,3"/>
  <line x1="30" y1="80" x2="60" y2="60" stroke="#F97316" stroke-width="2" opacity="0.3" stroke-dasharray="3,3"/>
  <line x1="90" y1="80" x2="60" y2="60" stroke="#F97316" stroke-width="2" opacity="0.3" stroke-dasharray="3,3"/>
  
  <!-- Company buildings at nodes -->
  <g transform="translate(30, 40)">
    <rect x="-4" y="-5" width="8" height="10" rx="1" fill="#1E3A8A"/>
    <rect x="-3" y="-3" width="2" height="2" fill="white" opacity="0.4"/>
    <rect x="1" y="-3" width="2" height="2" fill="white" opacity="0.4"/>
    <rect x="-3" y="1" width="2" height="2" fill="white" opacity="0.4"/>
    <rect x="1" y="1" width="2" height="2" fill="white" opacity="0.4"/>
  </g>
  
  <g transform="translate(90, 40)">
    <rect x="-4" y="-5" width="8" height="10" rx="1" fill="#1E3A8A"/>
    <rect x="-3" y="-3" width="2" height="2" fill="white" opacity="0.4"/>
    <rect x="1" y="-3" width="2" height="2" fill="white" opacity="0.4"/>
    <rect x="-3" y="1" width="2" height="2" fill="white" opacity="0.4"/>
    <rect x="1" y="1" width="2" height="2" fill="white" opacity="0.4"/>
  </g>
  
  <g transform="translate(30, 80)">
    <rect x="-4" y="-5" width="8" height="10" rx="1" fill="#1E3A8A"/>
    <rect x="-3" y="-3" width="2" height="2" fill="white" opacity="0.4"/>
    <rect x="1" y="-3" width="2" height="2" fill="white" opacity="0.4"/>
    <rect x="-3" y="1" width="2" height="2" fill="white" opacity="0.4"/>
    <rect x="1" y="1" width="2" height="2" fill="white" opacity="0.4"/>
  </g>
  
  <g transform="translate(90, 80)">
    <rect x="-4" y="-5" width="8" height="10" rx="1" fill="#1E3A8A"/>
    <rect x="-3" y="-3" width="2" height="2" fill="white" opacity="0.4"/>
    <rect x="1" y="-3" width="2" height="2" fill="white" opacity="0.4"/>
    <rect x="-3" y="1" width="2" height="2" fill="white" opacity="0.4"/>
    <rect x="1" y="1" width="2" height="2" fill="white" opacity="0.4"/>
  </g>
  
  <!-- Central hub circle -->
  <circle cx="60" cy="60" r="22" fill="white" stroke="#F97316" stroke-width="3"/>
  <circle cx="60" cy="60" r="18" fill="#F97316" opacity="0.1"/>
  
  <!-- Central truck as hub -->
  <g transform="translate(60, 60)">
    <rect x="-11" y="-6" width="16" height="10" rx="1.5" fill="#F97316"/>
    <rect x="-13" y="-7" width="7" height="11" rx="1" fill="#1E3A8A"/>
    <rect x="-11.5" y="-5" width="3.5" height="4.5" rx="0.5" fill="white" opacity="0.85"/>
    
    <!-- Wheels -->
    <circle cx="-9" cy="5.5" r="2.8" fill="#1E3A8A"/>
    <circle cx="-9" cy="5.5" r="1.5" fill="white" opacity="0.5"/>
    <circle cx="1" cy="5.5" r="2.8" fill="#1E3A8A"/>
    <circle cx="1" cy="5.5" r="1.5" fill="white" opacity="0.5"/>
    
    <!-- Cargo details -->
    <line x1="-6" y1="-5" x2="-6" y2="3" stroke="white" stroke-width="1.3" opacity="0.3"/>
    <line x1="-1" y1="-5" x2="-1" y2="3" stroke="white" stroke-width="1.3" opacity="0.3"/>
  </g>
  
  <!-- Node indicators -->
  <circle cx="30" cy="40" r="3" fill="#1E3A8A"/>
  <circle cx="90" cy="40" r="3" fill="#1E3A8A"/>
  <circle cx="30" cy="80" r="3" fill="#1E3A8A"/>
  <circle cx="90" cy="80" r="3" fill="#1E3A8A"/>
</svg>
