<svg xmlns="http://www.w3.org/2000/svg" viewBox="0 0 200 200" width="200" height="200">
  <!-- Hexagon Badge Logo -->
  
  <!-- Outer hexagon -->
  <path d="M 100 20 L 170 60 L 170 140 L 100 180 L 30 140 L 30 60 Z" 
        fill="none" 
        stroke="#1E3A8A" 
        stroke-width="4"/>
  
  <!-- Inner hexagon -->
  <path d="M 100 35 L 155 65 L 155 135 L 100 165 L 45 135 L 45 65 Z" 
        fill="#EFF6FF" 
        opacity="0.3"/>
  
  <!-- Stylized truck in center -->
  <g transform="translate(100, 100)">
    <!-- Truck body -->
    <rect x="-25" y="-12" width="36" height="18" rx="2" fill="#1E3A8A"/>
    
    <!-- Cab -->
    <rect x="-27" y="-14" width="12" height="21" rx="1.5" fill="#1E3A8A"/>
    
    <!-- Window -->
    <rect x="-24" y="-11" width="6" height="8" rx="0.5" fill="white" opacity="0.9"/>
    
    <!-- Wheels -->
    <circle cx="-20" cy="8" r="5" fill="#F97316"/>
    <circle cx="-20" cy="8" r="2.5" fill="#1E3A8A"/>
    <circle cx="3" cy="8" r="5" fill="#F97316"/>
    <circle cx="3" cy="8" r="2.5" fill="#1E3A8A"/>
    
    <!-- Cargo detail -->
    <rect x="-18" y="-10" width="1.5" height="15" fill="white" opacity="0.2"/>
    <rect x="-12" y="-10" width="1.5" height="15" fill="white" opacity="0.2"/>
    <rect x="-6" y="-10" width="1.5" height="15" fill="white" opacity="0.2"/>
  </g>
  
  <!-- Corner accents -->
  <circle cx="100" cy="20" r="5" fill="#F97316" opacity="0.6"/>
  <circle cx="170" cy="60" r="5" fill="#F97316" opacity="0.6"/>
  <circle cx="170" cy="140" r="5" fill="#F97316" opacity="0.6"/>
  <circle cx="100" cy="180" r="5" fill="#F97316" opacity="0.6"/>
  <circle cx="30" cy="140" r="5" fill="#F97316" opacity="0.6"/>
  <circle cx="30" cy="60" r="5" fill="#F97316" opacity="0.6"/>
</svg>