<svg xmlns="http://www.w3.org/2000/svg" viewBox="0 0 100 100" width="100" height="100">
  <!-- Modern geometric design with rounded elements -->
  
  <!-- Background circle -->
  <circle cx="50" cy="50" r="45" fill="none" stroke="#1E3A8A" stroke-width="1.5" opacity="0.15"/>
  
  <!-- Left company node -->
  <g transform="translate(20, 50)">
    <circle r="12" fill="#1E3A8A" opacity="0.1"/>
    <rect x="-5" y="-6" width="10" height="12" rx="1.5" fill="#1E3A8A"/>
    <rect x="-3.5" y="-4" width="2.5" height="3" fill="white" opacity="0.3"/>
    <rect x="1" y="-4" width="2.5" height="3" fill="white" opacity="0.3"/>
    <rect x="-3.5" y="1" width="2.5" height="3" fill="white" opacity="0.3"/>
    <rect x="1" y="1" width="2.5" height="3" fill="white" opacity="0.3"/>
  </g>
  
  <!-- Right company node -->
  <g transform="translate(80, 50)">
    <circle r="12" fill="#1E3A8A" opacity="0.1"/>
    <rect x="-5" y="-6" width="10" height="12" rx="1.5" fill="#1E3A8A"/>
    <rect x="-3.5" y="-4" width="2.5" height="3" fill="white" opacity="0.3"/>
    <rect x="1" y="-4" width="2.5" height="3" fill="white" opacity="0.3"/>
    <rect x="-3.5" y="1" width="2.5" height="3" fill="white" opacity="0.3"/>
    <rect x="1" y="1" width="2.5" height="3" fill="white" opacity="0.3"/>
  </g>
  
  <!-- Connection pathway with gradient -->
  <defs>
    <linearGradient id="pathGrad" x1="0%" y1="0%" x2="100%" y2="0%">
      <stop offset="0%" style="stop-color:#1E3A8A;stop-opacity:0.3" />
      <stop offset="50%" style="stop-color:#F97316;stop-opacity:1" />
      <stop offset="100%" style="stop-color:#1E3A8A;stop-opacity:0.3" />
    </linearGradient>
  </defs>
  
  <line x1="32" y1="50" x2="68" y2="50" stroke="url(#pathGrad)" stroke-width="3" stroke-linecap="round"/>
  
  <!-- Animated dots (visual suggestion) -->
  <circle cx="38" cy="50" r="2" fill="#F97316" opacity="0.6"/>
  <circle cx="50" cy="50" r="2.5" fill="#F97316"/>
  <circle cx="62" cy="50" r="2" fill="#F97316" opacity="0.6"/>
  
  <!-- Central truck - sleek modern design -->
  <g transform="translate(50, 50)">
    <!-- Truck body with rounded corners -->
    <path d="M -10 -6 L 4 -6 L 4 4 L -10 4 Z" fill="#F97316" rx="2"/>
    <rect x="-12" y="-7" width="6" height="11" rx="1.5" fill="#1E3A8A"/>
    
    <!-- Windshield -->
    <path d="M -11 -5 L -7 -5 L -7 -1 L -11 -1 Z" fill="white" opacity="0.85"/>
    
    <!-- Wheels -->
    <circle cx="-9" cy="6" r="2.5" fill="#1E3A8A"/>
    <circle cx="-9" cy="6" r="1.3" fill="white" opacity="0.4"/>
    <circle cx="0" cy="6" r="2.5" fill="#1E3A8A"/>
    <circle cx="0" cy="6" r="1.3" fill="white" opacity="0.4"/>
    
    <!-- Cargo lines -->
    <line x1="-6" y1="-5" x2="-6" y2="3" stroke="white" stroke-width="1.2" opacity="0.25"/>
    <line x1="-2" y1="-5" x2="-2" y2="3" stroke="white" stroke-width="1.2" opacity="0.25"/>
    
    <!-- Speed lines -->
    <line x1="-14" y1="-3" x2="-17" y2="-3" stroke="#F97316" stroke-width="1.5" opacity="0.4"/>
    <line x1="-14" y1="0" x2="-16" y2="0" stroke="#F97316" stroke-width="1.5" opacity="0.3"/>
    <line x1="-14" y1="3" x2="-17" y2="3" stroke="#F97316" stroke-width="1.5" opacity="0.4"/>
  </g>
  
  <!-- Directional arrows -->
  <polygon points="68,48 72,50 68,52" fill="#F97316" opacity="0.7"/>
  <polygon points="32,48 28,50 32,52" fill="#F97316" opacity="0.7"/>
</svg>
