<svg xmlns="http://www.w3.org/2000/svg" viewBox="0 0 200 200" width="200" height="200">
  <!-- Circular Network Hub Logo -->
  
  <!-- Outer ring -->
  <circle cx="100" cy="100" r="85" fill="none" stroke="#1E3A8A" stroke-width="5"/>
  <circle cx="100" cy="100" r="85" fill="none" stroke="#F97316" stroke-width="2" stroke-dasharray="15,8" opacity="0.6"/>
  
  <!-- Inner ring -->
  <circle cx="100" cy="100" r="60" fill="#EFF6FF" opacity="0.3"/>
  
  <!-- Central truck icon - top view style -->
  <g transform="translate(100, 100)">
    <!-- Truck body (top-down view) -->
    <rect x="-22" y="-30" width="44" height="60" rx="4" fill="#1E3A8A"/>
    
    <!-- Cab section -->
    <rect x="-18" y="-30" width="36" height="20" rx="3" fill="#1E3A8A"/>
    <rect x="-14" y="-27" width="28" height="14" rx="2" fill="white" opacity="0.15"/>
    
    <!-- Side mirrors/details -->
    <rect x="-25" y="-20" width="4" height="8" rx="1" fill="#1E3A8A"/>
    <rect x="21" y="-20" width="4" height="8" rx="1" fill="#1E3A8A"/>
    
    <!-- Cargo area stripes -->
    <rect x="-18" y="-5" width="36" height="3" fill="#F97316" opacity="0.7"/>
    <rect x="-18" y="5" width="36" height="3" fill="#F97316" opacity="0.7"/>
    <rect x="-18" y="15" width="36" height="3" fill="#F97316" opacity="0.7"/>
    <rect x="-18" y="25" width="36" height="3" fill="#F97316" opacity="0.7"/>
  </g>
  
  <!-- Connection points around circle -->
  <circle cx="100" cy="15" r="6" fill="#F97316" opacity="0.7"/>
  <circle cx="170" cy="50" r="6" fill="#F97316" opacity="0.7"/>
  <circle cx="185" cy="100" r="6" fill="#F97316" opacity="0.7"/>
  <circle cx="170" cy="150" r="6" fill="#F97316" opacity="0.7"/>
  <circle cx="100" cy="185" r="6" fill="#F97316" opacity="0.7"/>
  <circle cx="30" cy="150" r="6" fill="#F97316" opacity="0.7"/>
  <circle cx="15" cy="100" r="6" fill="#F97316" opacity="0.7"/>
  <circle cx="30" cy="50" r="6" fill="#F97316" opacity="0.7"/>
</svg>