<svg xmlns="http://www.w3.org/2000/svg" viewBox="0 0 200 200" width="200" height="200">
  <!-- Route/Path Logo -->
  
  <!-- Curved path -->
  <path d="M 40 140 Q 70 60, 100 100 T 160 60" 
        stroke="#F97316" 
        stroke-width="6" 
        fill="none" 
        stroke-linecap="round"/>
  
  <!-- Dotted underpath -->
  <path d="M 40 140 Q 70 60, 100 100 T 160 60" 
        stroke="#1E3A8A" 
        stroke-width="2" 
        fill="none" 
        stroke-dasharray="5,5"
        opacity="0.4"/>
  
  <!-- Start point -->
  <circle cx="40" cy="140" r="14" fill="#1E3A8A"/>
  <circle cx="40" cy="140" r="8" fill="white"/>
  
  <!-- End point -->
  <circle cx="160" cy="60" r="14" fill="#1E3A8A"/>
  <circle cx="160" cy="60" r="8" fill="white"/>
  
  <!-- Truck on route -->
  <g transform="translate(100, 100) rotate(-20)">
    <rect x="-14" y="-6" width="20" height="10" rx="2" fill="#1E3A8A"/>
    <rect x="-16" y="-8" width="8" height="12" rx="1" fill="#1E3A8A"/>
    <circle cx="-11" cy="5" r="3" fill="#F97316"/>
    <circle cx="1" cy="5" r="3" fill="#F97316"/>
    <rect x="-12" y="-5" width="1.5" height="9" fill="white" opacity="0.3"/>
    <rect x="-6" y="-5" width="1.5" height="9" fill="white" opacity="0.3"/>
  </g>
  
  <!-- Motion lines -->
  <line x1="70" y1="95" x2="60" y2="92" stroke="#F97316" stroke-width="2" opacity="0.5"/>
  <line x1="73" y1="102" x2="63" y2="99" stroke="#F97316" stroke-width="2" opacity="0.5"/>
</svg>