<svg xmlns="http://www.w3.org/2000/svg" viewBox="0 0 64 64" width="64" height="64">
  <!-- Ultra simple, clean design - best for small sizes -->
  
  <!-- Connection line -->
  <line x1="8" y1="32" x2="56" y2="32" stroke="#F97316" stroke-width="4" stroke-linecap="round"/>
  
  <!-- Left building (simple) -->
  <rect x="5" y="24" width="8" height="16" rx="1.5" fill="#1E3A8A"/>
  <rect x="7" y="28" width="1.5" height="2" fill="white" opacity="0.5"/>
  <rect x="9.5" y="28" width="1.5" height="2" fill="white" opacity="0.5"/>
  <rect x="7" y="32" width="1.5" height="2" fill="white" opacity="0.5"/>
  <rect x="9.5" y="32" width="1.5" height="2" fill="white" opacity="0.5"/>
  
  <!-- Right building (simple) -->
  <rect x="51" y="24" width="8" height="16" rx="1.5" fill="#1E3A8A"/>
  <rect x="53" y="28" width="1.5" height="2" fill="white" opacity="0.5"/>
  <rect x="55.5" y="28" width="1.5" height="2" fill="white" opacity="0.5"/>
  <rect x="53" y="32" width="1.5" height="2" fill="white" opacity="0.5"/>
  <rect x="55.5" y="32" width="1.5" height="2" fill="white" opacity="0.5"/>
  
  <!-- Central truck (ultra minimal) -->
  <g transform="translate(32, 32)">
    <!-- Body -->
    <rect x="-9" y="-6" width="14" height="10" rx="2" fill="#F97316"/>
    <!-- Cab -->
    <rect x="-11" y="-7" width="6" height="11" rx="1.5" fill="#1E3A8A"/>
    <!-- Window -->
    <rect x="-10" y="-5" width="3" height="4" rx="0.8" fill="white" opacity="0.9"/>
    <!-- Wheels -->
    <circle cx="-8" cy="5" r="2.5" fill="#1E3A8A"/>
    <circle cx="-8" cy="5" r="1.3" fill="white" opacity="0.4"/>
    <circle cx="1" cy="5" r="2.5" fill="#1E3A8A"/>
    <circle cx="1" cy="5" r="1.3" fill="white" opacity="0.4"/>
  </g>
  
  <!-- Arrows -->
  <polygon points="54,30 58,32 54,34" fill="#F97316"/>
  <polygon points="10,30 6,32 10,34" fill="#F97316"/>
</svg>
