<svg xmlns="http://www.w3.org/2000/svg" viewBox="0 0 64 64" width="64" height="64">
  <!-- Minimalist truck with connection nodes -->
  <circle cx="16" cy="32" r="6" fill="#1E3A8A" opacity="0.15"/>
  <circle cx="48" cy="32" r="6" fill="#1E3A8A" opacity="0.15"/>
  
  <!-- Connection line -->
  <line x1="22" y1="32" x2="42" y2="32" stroke="#F97316" stroke-width="3" stroke-dasharray="4,3"/>
  
  <!-- Left node (building) -->
  <rect x="13" y="28" width="6" height="8" rx="1" fill="#1E3A8A"/>
  <rect x="14" y="30" width="1.5" height="2" fill="white" opacity="0.4"/>
  <rect x="16.5" y="30" width="1.5" height="2" fill="white" opacity="0.4"/>
  
  <!-- Right node (building) -->
  <rect x="45" y="28" width="6" height="8" rx="1" fill="#1E3A8A"/>
  <rect x="46" y="30" width="1.5" height="2" fill="white" opacity="0.4"/>
  <rect x="48.5" y="30" width="1.5" height="2" fill="white" opacity="0.4"/>
  
  <!-- Central truck (modern, geometric) -->
  <g transform="translate(32, 32)">
    <!-- Truck body -->
    <rect x="-8" y="-5" width="12" height="8" rx="1.5" fill="#F97316"/>
    <!-- Truck cab -->
    <rect x="-9" y="-6" width="5" height="9" rx="1" fill="#F97316"/>
    <!-- Window -->
    <rect x="-8" y="-4" width="2.5" height="3" rx="0.5" fill="white" opacity="0.9"/>
    <!-- Wheels -->
    <circle cx="-6" cy="4" r="2" fill="#1E3A8A"/>
    <circle cx="-6" cy="4" r="1" fill="white" opacity="0.3"/>
    <circle cx="0" cy="4" r="2" fill="#1E3A8A"/>
    <circle cx="0" cy="4" r="1" fill="white" opacity="0.3"/>
    <!-- Cargo detail -->
    <line x1="-4" y1="-4" x2="-4" y2="2" stroke="white" opacity="0.3" stroke-width="1"/>
    <line x1="0" y1="-4" x2="0" y2="2" stroke="white" opacity="0.3" stroke-width="1"/>
  </g>
  
  <!-- Arrow indicators -->
  <polygon points="42,30 44,32 42,34" fill="#F97316"/>
  <polygon points="22,30 20,32 22,34" fill="#F97316"/>
</svg>
