<?xml version="1.0" standalone="no"?>
<!DOCTYPE svg PUBLIC "-//W3C//DTD SVG 20010904//EN"
 "http://www.w3.org/TR/2001/REC-SVG-20010904/DTD/svg10.dtd">
<svg version="1.0" xmlns="http://www.w3.org/2000/svg"
 width="1024.000000pt" height="1024.000000pt" viewBox="0 0 1024.000000 1024.000000"
 preserveAspectRatio="xMidYMid meet">

<g transform="translate(0.000000,1024.000000) scale(0.100000,-0.100000)"
fill="#000000" stroke="none">
<path d="M3390 7087 c-87 -24 -147 -74 -193 -161 l-22 -41 -6 -870 c-5 -689
-9 -906 -22 -1041 -28 -295 -47 -480 -77 -754 -17 -146 -30 -294 -30 -330 0
-83 30 -149 93 -207 88 -81 66 -78 567 -78 l445 0 53 24 c67 30 145 114 166
178 14 42 41 270 61 518 10 127 7 126 91 45 116 -110 196 -156 329 -191 222
-59 489 23 607 185 37 51 36 89 -1 127 -36 35 -57 36 -194 8 -216 -45 -407 4
-580 146 -83 69 -143 143 -240 299 -100 161 -152 205 -206 176 -40 -21 -51
-54 -62 -176 -33 -389 -81 -846 -94 -891 -19 -64 -56 -110 -110 -134 -35 -16
-69 -19 -285 -19 -223 0 -248 2 -276 19 -52 31 -52 18 25 546 28 193 75 535
106 760 30 226 64 446 75 490 31 123 82 217 159 294 149 150 321 178 511 85
111 -55 213 -163 410 -434 90 -124 186 -255 213 -293 81 -112 183 -152 278
-110 55 25 87 62 234 273 285 408 399 538 574 655 225 149 364 185 729 185
l214 0 -4 248 c-3 227 -5 251 -24 292 -32 68 -88 126 -152 157 l-57 28 -305 3
c-341 4 -394 -2 -469 -52 -63 -42 -101 -95 -493 -683 -188 -282 -345 -513
-349 -513 -4 0 -74 91 -155 203 -319 434 -647 874 -688 922 -26 30 -70 65
-107 85 l-64 35 -315 2 c-228 2 -328 -1 -360 -10z"/>
<path d="M7166 6368 c-21 -29 -20 -40 5 -72 l20 -26 310 0 c296 0 310 1 329
20 25 25 26 62 2 83 -16 15 -55 17 -335 17 -315 0 -316 0 -331 -22z"/>
<path d="M6460 6123 c-65 -10 -160 -39 -210 -64 -71 -35 -170 -109 -216 -162
-45 -52 -94 -152 -94 -192 0 -66 65 -125 139 -125 47 0 80 17 176 90 50 38
117 81 149 95 130 57 136 58 628 64 441 6 458 7 484 27 44 32 66 68 71 115 6
60 -21 108 -77 137 -44 22 -44 22 -535 21 -269 -1 -501 -4 -515 -6z"/>
<path d="M4088 5819 c-36 -20 -14 -84 47 -137 55 -49 121 -57 135 -16 25 66
-122 189 -182 153z"/>
<path d="M3886 5646 c-38 -29 -47 -121 -17 -176 42 -79 120 -20 105 80 -11 82
-50 125 -88 96z"/>
<path d="M6912 5644 c-14 -10 -22 -26 -22 -44 0 -60 1 -60 467 -60 l423 0 15
24 c19 29 11 72 -15 86 -11 6 -183 10 -432 10 -358 0 -417 -2 -436 -16z"/>
<path d="M5783 5551 c-24 -15 -45 -47 -82 -123 -37 -78 -62 -116 -105 -158
-78 -76 -85 -139 -19 -169 38 -17 65 -13 132 20 86 43 156 116 199 207 48 101
50 159 7 202 -40 40 -89 48 -132 21z"/>
<path d="M4368 5529 c-22 -13 -24 -78 -4 -118 22 -41 92 -101 120 -101 45 0
48 54 6 126 -26 46 -81 104 -98 104 -4 0 -15 -5 -24 -11z"/>
<path d="M3831 5225 c-53 -68 -32 -205 31 -205 26 0 58 72 58 130 0 88 -47
127 -89 75z"/>
<path d="M4608 5145 c-9 -20 -6 -33 16 -79 34 -69 67 -96 116 -96 32 0 39 4
44 24 11 45 -33 121 -90 157 -43 26 -72 24 -86 -6z"/>
<path d="M6013 5034 c-2 -6 -3 -283 -1 -615 l3 -604 24 -45 c32 -61 76 -107
136 -138 50 -27 51 -27 275 -27 224 0 225 0 275 27 64 34 108 80 135 141 21
48 22 56 21 659 l-1 610 -431 1 c-303 2 -433 -1 -436 -9z"/>
<path d="M5385 4964 c-46 -23 -95 -75 -95 -100 0 -60 85 -51 152 16 41 41 46
60 22 84 -19 20 -41 20 -79 0z"/>
<path d="M4916 4894 c-11 -30 -6 -51 24 -92 45 -63 128 -98 169 -73 20 13 18
61 -4 95 -40 60 -174 110 -189 70z"/>
<path d="M3798 4803 c-25 -27 -39 -71 -40 -127 -1 -62 8 -93 32 -106 43 -23
90 60 90 157 0 74 -46 116 -82 76z"/>
<path d="M3727 4368 c-38 -29 -62 -172 -37 -219 13 -24 52 -25 72 -1 42 48 50
191 13 218 -23 17 -27 17 -48 2z"/>
</g>
</svg>
