<svg xmlns="http://www.w3.org/2000/svg" viewBox="0 0 64 64" width="64" height="64">
  <!-- Background circle -->
  <circle cx="32" cy="32" r="32" fill="#2563eb"/>
  
  <!-- Truck icon -->
  <g transform="translate(12, 20)">
    <!-- Truck body -->
    <rect x="0" y="6" width="24" height="12" rx="2" fill="#ffffff"/>
    
    <!-- Truck cabin -->
    <path d="M0,8 L0,4 Q0,2 2,2 L10,2 Q12,2 12,4 L12,8" fill="#ffffff"/>
    
    <!-- Truck cargo -->
    <rect x="24" y="6" width="14" height="12" rx="2" fill="#ffffff"/>
    <path d="M24,8 L24,4 Q24,2 26,2 L36,2 Q38,2 38,4 L38,8" fill="#ffffff"/>
    
    <!-- Wheels -->
    <circle cx="8" cy="20" r="3" fill="#1e40af"/>
    <circle cx="8" cy="20" r="1.5" fill="#ffffff"/>
    
    <circle cx="30" cy="20" r="3" fill="#1e40af"/>
    <circle cx="30" cy="20" r="1.5" fill="#ffffff"/>
    
    <!-- Cargo lines -->
    <line x1="27" y1="10" x2="35" y2="10" stroke="#2563eb" stroke-width="1"/>
    <line x1="27" y1="14" x2="35" y2="14" stroke="#2563eb" stroke-width="1"/>
  </g>
</svg>
